<svg width="84" height="42" viewBox="0 0 84 42" fill="none" xmlns="http://www.w3.org/2000/svg">
<path d="M73.497 42.0002H52.4981C50.5627 42.0002 48.9983 40.4357 48.9983 38.5002C48.9983 36.5647 50.5627 35.0002 52.4981 35.0002H72.0481L49.0823 12.0332C47.1084 10.0592 43.8956 10.0592 41.9182 12.0332L33.0322 20.9197C28.3284 25.6237 20.6743 25.6237 15.9705 20.9197L1.02632 5.97475C-0.342107 4.60625 -0.342107 2.39424 1.02632 1.02574C1.70879 0.343239 2.60474 0.000244141 3.50069 0.000244141C4.39665 0.000244141 5.2926 0.343239 5.97506 1.02574L20.9193 15.9707C22.8337 17.8852 26.169 17.8852 28.0834 15.9707L36.9694 7.08424C41.6732 2.38025 49.3273 2.38025 54.0311 7.08424L77.0004 30.0512V10.5002C77.0004 8.56474 78.5648 7.00024 80.5002 7.00024C82.4356 7.00024 84 8.56474 84 10.5002V31.5002C84 37.2892 79.2857 42.0002 73.497 42.0002Z" fill="#8BC542"/>
</svg>
